<svg width="165" height="165" viewBox="0 0 165 165" fill="none" xmlns="http://www.w3.org/2000/svg">
<path d="M82.0566 163.557C127.068 163.557 163.557 127.068 163.557 82.0566C163.557 37.0454 127.068 0.556602 82.0566 0.556602C37.0454 0.556602 0.556599 37.0454 0.556599 82.0566C0.556599 127.068 37.0454 163.557 82.0566 163.557Z" fill="white"/>
<path d="M82.0566 163.057C126.792 163.057 163.057 126.792 163.057 82.0566C163.057 37.3215 126.792 1.0566 82.0566 1.0566C37.3215 1.0566 1.0566 37.3215 1.0566 82.0566C1.0566 126.792 37.3215 163.057 82.0566 163.057Z" stroke="black" stroke-opacity="0.07"/>
<path d="M150.484 82.4799L48.6689 141.424L48.5291 23.7776L150.484 82.4799Z" fill="#5DCD8B"/>
</svg>
