<svg width="165" height="165" viewBox="0 0 165 165" fill="none" xmlns="http://www.w3.org/2000/svg">
<g clip-path="url(#clip0_4_43)">
<path d="M82.9434 1.4434C37.9322 1.4434 1.44341 37.9322 1.44341 82.9434C1.44342 127.955 37.9322 164.443 82.9434 164.443C127.955 164.443 164.443 127.955 164.443 82.9434C164.443 37.9322 127.955 1.44339 82.9434 1.4434Z" fill="white"/>
<path d="M82.9434 1.9434C38.2083 1.9434 1.94341 38.2083 1.94341 82.9434C1.94342 127.678 38.2084 163.943 82.9434 163.943C127.678 163.943 163.943 127.678 163.943 82.9434C163.943 38.2083 127.678 1.94339 82.9434 1.9434Z" stroke="black" stroke-opacity="0.07"/>
<path d="M14.516 82.5201L116.331 23.576L116.471 141.222L14.516 82.5201Z" fill="#5DCD8B"/>
</g>
<defs>
<clipPath id="clip0_4_43">
<rect width="165" height="165" fill="white" transform="translate(165 165) rotate(180)"/>
</clipPath>
</defs>
</svg>
